<?xml version="1.0" encoding="utf-8"?>
<!-- Generator: Adobe Illustrator 27.5.0, SVG Export Plug-In . SVG Version: 6.00 Build 0)  -->
<svg version="1.1" xmlns="http://www.w3.org/2000/svg" xmlns:xlink="http://www.w3.org/1999/xlink" x="0px" y="0px"
	 viewBox="0 0 750 500" style="enable-background:new 0 0 750 500;" xml:space="preserve">
<g id="BACKGROUND">
	<g>
		
			<rect x="125" y="-124" transform="matrix(-1.836970e-16 1 -1 -1.836970e-16 626 -124)" style="fill:#B3CBFC;" width="500" height="750"/>
	</g>
</g>
<g id="OBJECTS">
	<g>
		<path style="fill:#FFFFFF;" d="M91.754,129.588l3.852-3.449l-1.511-3.715c0.265-0.517,0.495-1.059,0.682-1.63
			c0.186-0.568,0.323-1.143,0.415-1.715l3.419-2.099l-1.06-5.06l-3.977-0.548c-0.63-0.985-1.42-1.873-2.346-2.623l-0.107-4.01
			l-4.912-1.611l-2.461,3.165c-1.189,0.058-2.352,0.306-3.444,0.724l-3.528-1.911l-3.851,3.449l1.511,3.715
			c-0.267,0.515-0.496,1.058-0.683,1.628c-0.186,0.568-0.323,1.143-0.414,1.717l-3.418,2.096l1.06,5.06l3.975,0.548
			c0.632,0.985,1.422,1.874,2.347,2.625l0.108,4.008l4.911,1.611l2.46-3.167c1.191-0.056,2.354-0.302,3.446-0.723L91.754,129.588z
			 M87.355,118.36c-0.56,1.706-2.398,2.636-4.104,2.076c-1.707-0.559-2.637-2.396-2.076-4.104c0.56-1.706,2.396-2.638,4.104-2.076
			C86.985,114.815,87.915,116.653,87.355,118.36z"/>
		<path style="fill:#FFFFFF;" d="M110.751,137.989l2.99-2.676l-1.173-2.884c0.207-0.402,0.384-0.822,0.529-1.265
			c0.146-0.443,0.252-0.887,0.322-1.332l2.654-1.63l-0.823-3.926l-3.085-0.426c-0.491-0.765-1.104-1.454-1.822-2.038l-0.084-3.111
			l-3.813-1.252l-1.911,2.459c-0.923,0.043-1.825,0.235-2.673,0.561l-2.738-1.483l-2.989,2.676l1.172,2.884
			c-0.206,0.4-0.385,0.822-0.53,1.263c-0.146,0.442-0.251,0.889-0.322,1.333l-2.654,1.628l0.824,3.928l3.086,0.426
			c0.49,0.765,1.103,1.454,1.821,2.038l0.084,3.111l3.813,1.25l1.911-2.457c0.923-0.043,1.826-0.235,2.674-0.563L110.751,137.989z
			 M107.336,129.275c-0.436,1.324-1.861,2.046-3.187,1.611c-1.325-0.433-2.047-1.861-1.612-3.185
			c0.435-1.326,1.861-2.046,3.187-1.613C107.048,126.522,107.77,127.949,107.336,129.275z"/>
	</g>
	<g>
		<g>
			<path style="fill:#413A66;" d="M628.957,299.331h-11.458c-0.524,0-0.948-0.425-0.948-0.948c0-0.524,0.424-0.948,0.948-0.948
				h11.458c0.524,0,0.948,0.424,0.948,0.948C629.905,298.906,629.481,299.331,628.957,299.331z M606.04,299.331h-11.459
				c-0.524,0-0.948-0.425-0.948-0.948c0-0.524,0.424-0.948,0.948-0.948h11.459c0.524,0,0.948,0.424,0.948,0.948
				C606.988,298.906,606.563,299.331,606.04,299.331z M583.122,299.331h-11.459c-0.524,0-0.948-0.425-0.948-0.948
				c0-0.524,0.424-0.948,0.948-0.948h11.459c0.524,0,0.948,0.424,0.948,0.948C584.07,298.906,583.646,299.331,583.122,299.331z
				 M560.204,299.331h-11.458c-0.524,0-0.948-0.425-0.948-0.948c0-0.524,0.424-0.948,0.948-0.948h11.458
				c0.524,0,0.948,0.424,0.948,0.948C561.152,298.906,560.729,299.331,560.204,299.331z M537.287,299.331h-11.458
				c-0.524,0-0.949-0.425-0.949-0.948c0-0.524,0.424-0.948,0.949-0.948h11.458c0.524,0,0.948,0.424,0.948,0.948
				C538.235,298.906,537.811,299.331,537.287,299.331z M514.369,299.331h-11.46c-0.524,0-0.948-0.425-0.948-0.948
				c0-0.524,0.424-0.948,0.948-0.948h11.46c0.524,0,0.948,0.424,0.948,0.948C515.317,298.906,514.893,299.331,514.369,299.331z
				 M491.451,299.331h-11.459c-0.524,0-0.948-0.425-0.948-0.948c0-0.524,0.424-0.948,0.948-0.948h11.459
				c0.524,0,0.948,0.424,0.948,0.948C492.399,298.906,491.975,299.331,491.451,299.331z M468.533,299.331h-11.459
				c-0.524,0-0.948-0.425-0.948-0.948c0-0.524,0.424-0.948,0.948-0.948h11.459c0.524,0,0.949,0.424,0.949,0.948
				C469.481,298.906,469.057,299.331,468.533,299.331z M445.615,299.331h-11.458c-0.524,0-0.948-0.425-0.948-0.948
				c0-0.524,0.424-0.948,0.948-0.948h11.458c0.524,0,0.948,0.424,0.948,0.948C446.564,298.906,446.14,299.331,445.615,299.331z
				 M422.698,299.331h-11.459c-0.524,0-0.948-0.425-0.948-0.948c0-0.524,0.424-0.948,0.948-0.948h11.459
				c0.524,0,0.948,0.424,0.948,0.948C423.646,298.906,423.222,299.331,422.698,299.331z M399.78,299.331h-7.981
				c-1.288,0-2.546-0.232-3.741-0.691c-0.489-0.188-0.733-0.736-0.545-1.225c0.187-0.489,0.735-0.732,1.225-0.546
				c0.976,0.375,2.007,0.565,3.061,0.565h7.981c0.524,0,0.948,0.424,0.948,0.948C400.728,298.906,400.304,299.331,399.78,299.331z
				 M640.34,298.715c-0.382,0-0.743-0.232-0.886-0.611c-0.186-0.49,0.061-1.037,0.549-1.224c3.292-1.251,5.504-4.458,5.504-7.98
				c0-0.523,0.424-0.968,0.948-0.968c0.524,0,0.948,0.405,0.948,0.93v0.038c0,4.305-2.703,8.225-6.727,9.753
				C640.566,298.695,640.452,298.715,640.34,298.715z M382.317,289.81c-0.524,0-0.948-0.424-0.948-0.948v-11.458
				c0-0.524,0.424-0.948,0.948-0.948s0.948,0.424,0.948,0.948v11.458C383.265,289.387,382.841,289.81,382.317,289.81z
				 M646.456,278.351c-0.524,0-0.948-0.425-0.948-0.948v-11.459c0-0.524,0.424-0.948,0.948-0.948c0.524,0,0.948,0.424,0.948,0.948
				v11.459C647.404,277.926,646.979,278.351,646.456,278.351z M382.317,266.894c-0.524,0-0.948-0.425-0.948-0.948v-11.459
				c0-0.524,0.424-0.948,0.948-0.948s0.948,0.424,0.948,0.948v11.459C383.265,266.469,382.841,266.894,382.317,266.894z
				 M646.456,255.433c-0.524,0-0.948-0.424-0.948-0.948v-11.459c0-0.524,0.424-0.948,0.948-0.948c0.524,0,0.948,0.424,0.948,0.948
				v11.459C647.404,255.009,646.979,255.433,646.456,255.433z M382.317,243.976c-0.524,0-0.948-0.425-0.948-0.948v-11.458
				c0-0.524,0.424-0.948,0.948-0.948s0.948,0.424,0.948,0.948v11.458C383.265,243.551,382.841,243.976,382.317,243.976z
				 M646.456,232.515c-0.524,0-0.948-0.424-0.948-0.948v-11.459c0-0.524,0.424-0.948,0.948-0.948c0.524,0,0.948,0.424,0.948,0.948
				v11.459C647.404,232.091,646.979,232.515,646.456,232.515z M382.317,221.058c-0.524,0-0.948-0.425-0.948-0.948v-11.459
				c0-0.524,0.424-0.948,0.948-0.948s0.948,0.424,0.948,0.948v11.459C383.265,220.633,382.841,221.058,382.317,221.058z
				 M646.456,209.598c-0.524,0-0.948-0.425-0.948-0.948V197.19c0-0.524,0.424-0.948,0.948-0.948c0.524,0,0.948,0.424,0.948,0.948
				v11.459C647.404,209.172,646.979,209.598,646.456,209.598z M382.317,198.141c-0.524,0-0.948-0.425-0.948-0.948v-11.459
				c0-0.524,0.424-0.948,0.948-0.948s0.948,0.424,0.948,0.948v11.459C383.265,197.715,382.841,198.141,382.317,198.141z
				 M646.456,186.68c-0.524,0-0.948-0.425-0.948-0.948v-11.458c0-0.524,0.424-0.948,0.948-0.948c0.524,0,0.948,0.424,0.948,0.948
				v11.458C647.404,186.255,646.979,186.68,646.456,186.68z M382.317,175.223c-0.524,0-0.948-0.425-0.948-0.948v-11.458
				c0-0.524,0.424-0.948,0.948-0.948s0.948,0.424,0.948,0.948v11.458C383.265,174.798,382.841,175.223,382.317,175.223z
				 M646.456,163.762c-0.524,0-0.948-0.425-0.948-0.948v-11.459c0-0.524,0.424-0.948,0.948-0.948c0.524,0,0.948,0.424,0.948,0.948
				v11.459C647.404,163.337,646.979,163.762,646.456,163.762z M382.317,152.305c-0.524,0-0.948-0.425-0.948-0.948v-11.459
				c0-0.524,0.424-0.948,0.948-0.948s0.948,0.425,0.948,0.948v11.459C383.265,151.88,382.841,152.305,382.317,152.305z
				 M646.456,140.845c-0.524,0-0.948-0.425-0.948-0.948v-11.459c0-0.524,0.424-0.948,0.948-0.948c0.524,0,0.948,0.424,0.948,0.948
				v11.459C647.404,140.419,646.979,140.845,646.456,140.845z M382.317,129.387c-0.524,0-0.948-0.425-0.948-0.948v-11.459
				c0-0.523,0.424-0.948,0.948-0.948s0.948,0.425,0.948,0.948v11.459C383.265,128.962,382.841,129.387,382.317,129.387z
				 M646.456,117.926c-0.524,0-0.948-0.425-0.948-0.948v-11.459c0-0.523,0.424-0.948,0.948-0.948c0.524,0,0.948,0.425,0.948,0.948
				v11.459C647.404,117.501,646.979,117.926,646.456,117.926z M382.317,106.469c-0.524,0-0.948-0.425-0.948-0.948V94.062
				c0-0.523,0.424-0.948,0.948-0.948s0.948,0.425,0.948,0.948v11.459C383.265,106.044,382.841,106.469,382.317,106.469z
				 M646.456,95.008c-0.524,0-0.948-0.425-0.948-0.948V82.602c0-0.523,0.424-0.948,0.948-0.948c0.524,0,0.948,0.425,0.948,0.948
				V94.06C647.404,94.584,646.979,95.008,646.456,95.008z M382.317,83.552c-0.524,0-0.948-0.425-0.948-0.949V71.145
				c0-0.523,0.424-0.948,0.948-0.948s0.948,0.425,0.948,0.948v11.458C383.265,83.127,382.841,83.552,382.317,83.552z
				 M646.456,72.082L646.456,72.082c-0.524,0-0.948-0.416-0.948-0.94c0.001-3.534-2.205-6.739-5.489-7.994
				c-0.49-0.187-0.734-0.735-0.548-1.224c0.187-0.489,0.737-0.733,1.224-0.547c4.014,1.533,6.71,5.451,6.709,9.748
				C647.404,71.649,646.979,72.082,646.456,72.082z M388.414,63.213c-0.382,0-0.741-0.232-0.885-0.61
				c-0.187-0.489,0.057-1.037,0.546-1.224c1.188-0.454,2.44-0.684,3.721-0.684c0.001,0,0.003,0,0.003,0h7.997
				c0.524,0,0.948,0.424,0.948,0.948c0,0.523-0.424,0.948-0.948,0.948h-7.997c0,0-0.001,0-0.003,0c-1.049,0-2.073,0.188-3.043,0.559
				C388.641,63.192,388.527,63.213,388.414,63.213z M628.973,62.591h-11.458c-0.525,0-0.948-0.425-0.948-0.948
				c0-0.524,0.424-0.948,0.948-0.948h11.458c0.524,0,0.949,0.424,0.949,0.948C629.921,62.166,629.497,62.591,628.973,62.591z
				 M606.055,62.591h-11.458c-0.524,0-0.948-0.425-0.948-0.948c0-0.524,0.424-0.948,0.948-0.948h11.458
				c0.524,0,0.948,0.424,0.948,0.948C607.003,62.166,606.58,62.591,606.055,62.591z M583.138,62.591h-11.459
				c-0.524,0-0.948-0.425-0.948-0.948c0-0.524,0.424-0.948,0.948-0.948h11.459c0.524,0,0.948,0.424,0.948,0.948
				C584.086,62.166,583.662,62.591,583.138,62.591z M560.22,62.591h-11.459c-0.524,0-0.948-0.425-0.948-0.948
				c0-0.524,0.424-0.948,0.948-0.948h11.459c0.524,0,0.948,0.424,0.948,0.948C561.169,62.166,560.744,62.591,560.22,62.591z
				 M537.302,62.591h-11.459c-0.524,0-0.948-0.425-0.948-0.948c0-0.524,0.424-0.948,0.948-0.948h11.459
				c0.524,0,0.948,0.424,0.948,0.948C538.25,62.166,537.826,62.591,537.302,62.591z M514.384,62.591h-11.458
				c-0.524,0-0.948-0.425-0.948-0.948c0-0.524,0.424-0.948,0.948-0.948h11.458c0.524,0,0.948,0.424,0.948,0.948
				C515.332,62.166,514.908,62.591,514.384,62.591z M491.466,62.591h-11.459c-0.524,0-0.948-0.425-0.948-0.948
				c0-0.524,0.424-0.948,0.948-0.948h11.459c0.524,0,0.948,0.424,0.948,0.948C492.415,62.166,491.99,62.591,491.466,62.591z
				 M468.549,62.591H457.09c-0.524,0-0.948-0.425-0.948-0.948c0-0.524,0.424-0.948,0.948-0.948h11.459
				c0.524,0,0.948,0.424,0.948,0.948C469.497,62.166,469.073,62.591,468.549,62.591z M445.631,62.591h-11.458
				c-0.525,0-0.948-0.425-0.948-0.948c0-0.524,0.424-0.948,0.948-0.948h11.458c0.524,0,0.948,0.424,0.948,0.948
				C446.579,62.166,446.155,62.591,445.631,62.591z M422.713,62.591h-11.458c-0.524,0-0.948-0.425-0.948-0.948
				c0-0.524,0.424-0.948,0.948-0.948h11.458c0.524,0,0.948,0.424,0.948,0.948C423.662,62.166,423.238,62.591,422.713,62.591z"/>
		</g>
		<g>
			<path style="fill:#413A66;" d="M279.855,404.633h-11.323c-0.524,0-0.948-0.424-0.948-0.947c0-0.524,0.424-0.949,0.948-0.949
				h11.323c0.523,0,0.948,0.425,0.948,0.949C280.804,404.209,280.379,404.633,279.855,404.633z M257.209,404.633h-11.324
				c-0.523,0-0.948-0.424-0.948-0.947c0-0.524,0.425-0.949,0.948-0.949h11.324c0.523,0,0.948,0.425,0.948,0.949
				C258.157,404.209,257.732,404.633,257.209,404.633z M234.563,404.633h-11.324c-0.524,0-0.948-0.424-0.948-0.947
				c0-0.524,0.424-0.949,0.948-0.949h11.324c0.523,0,0.948,0.425,0.948,0.949C235.511,404.209,235.086,404.633,234.563,404.633z
				 M211.915,404.633h-11.323c-0.523,0-0.948-0.424-0.948-0.947c0-0.524,0.425-0.949,0.948-0.949h11.323
				c0.524,0,0.948,0.425,0.948,0.949C212.864,404.209,212.439,404.633,211.915,404.633z M189.269,404.633h-11.323
				c-0.524,0-0.948-0.424-0.948-0.947c0-0.524,0.424-0.949,0.948-0.949h11.323c0.524,0,0.948,0.425,0.948,0.949
				C190.217,404.209,189.792,404.633,189.269,404.633z M166.623,404.633h-11.324c-0.523,0-0.948-0.424-0.948-0.947
				c0-0.524,0.425-0.949,0.948-0.949h11.324c0.523,0,0.948,0.425,0.948,0.949C167.571,404.209,167.146,404.633,166.623,404.633z
				 M143.976,404.633h-11.323c-0.523,0-0.948-0.424-0.948-0.947c0-0.524,0.425-0.949,0.948-0.949h11.323
				c0.524,0,0.948,0.425,0.948,0.949C144.924,404.209,144.499,404.633,143.976,404.633z M121.329,404.633h-9.869
				c-0.559,0-1.118-0.066-1.662-0.197c-0.509-0.123-0.822-0.635-0.7-1.145c0.123-0.509,0.636-0.824,1.144-0.699
				c0.399,0.096,0.809,0.145,1.218,0.145h9.869c0.523,0,0.948,0.425,0.948,0.949C122.277,404.209,121.853,404.633,121.329,404.633z
				 M291.178,404.621c-0.497,0-0.915-0.387-0.946-0.891c-0.032-0.522,0.366-0.973,0.889-1.004c3.18-0.194,5.67-3.26,5.67-6.979
				c0-0.524,0.425-0.978,0.948-0.978c0.524,0,0.948,0.394,0.948,0.917v0.061c0,4.72-3.273,8.617-7.451,8.871
				C291.216,404.62,291.197,404.621,291.178,404.621z M104.523,395.617c-0.523,0-0.948-0.424-0.948-0.948v-11.322
				c0-0.524,0.425-0.948,0.948-0.948c0.524,0,0.949,0.424,0.949,0.948v11.322C105.472,395.193,105.047,395.617,104.523,395.617z
				 M297.739,385.311c-0.523,0-0.948-0.424-0.948-0.948V373.04c0-0.524,0.425-0.948,0.948-0.948c0.524,0,0.948,0.424,0.948,0.948
				v11.323C298.688,384.888,298.263,385.311,297.739,385.311z M104.523,372.971c-0.523,0-0.948-0.424-0.948-0.948v-11.323
				c0-0.524,0.425-0.948,0.948-0.948c0.524,0,0.949,0.424,0.949,0.948v11.323C105.472,372.547,105.047,372.971,104.523,372.971z
				 M297.739,362.664c-0.523,0-0.948-0.424-0.948-0.948v-11.322c0-0.524,0.425-0.948,0.948-0.948c0.524,0,0.948,0.424,0.948,0.948
				v11.322C298.688,362.24,298.263,362.664,297.739,362.664z M104.523,350.325c-0.523,0-0.948-0.425-0.948-0.948v-11.324
				c0-0.523,0.425-0.948,0.948-0.948c0.524,0,0.949,0.425,0.949,0.948v11.324C105.472,349.9,105.047,350.325,104.523,350.325z
				 M297.739,340.018c-0.523,0-0.948-0.424-0.948-0.948v-11.323c0-0.524,0.425-0.948,0.948-0.948c0.524,0,0.948,0.424,0.948,0.948
				v11.323C298.688,339.594,298.263,340.018,297.739,340.018z M104.523,327.678c-0.523,0-0.948-0.424-0.948-0.948v-11.324
				c0-0.523,0.425-0.948,0.948-0.948c0.524,0,0.949,0.425,0.949,0.948v11.324C105.472,327.254,105.047,327.678,104.523,327.678z
				 M297.739,317.372c-0.523,0-0.948-0.425-0.948-0.948V305.1c0-0.523,0.425-0.948,0.948-0.948c0.524,0,0.948,0.425,0.948,0.948
				v11.324C298.688,316.947,298.263,317.372,297.739,317.372z M104.523,305.031c-0.523,0-0.948-0.424-0.948-0.948V292.76
				c0-0.524,0.425-0.948,0.948-0.948c0.524,0,0.949,0.424,0.949,0.948v11.323C105.472,304.607,105.047,305.031,104.523,305.031z
				 M297.739,294.725c-0.523,0-0.948-0.424-0.948-0.948v-11.323c0-0.523,0.425-0.948,0.948-0.948c0.524,0,0.948,0.425,0.948,0.948
				v11.323C298.688,294.301,298.263,294.725,297.739,294.725z M104.523,282.384c-0.523,0-0.948-0.424-0.948-0.948v-11.322
				c0-0.524,0.425-0.948,0.948-0.948c0.524,0,0.949,0.424,0.949,0.948v11.322C105.472,281.96,105.047,282.384,104.523,282.384z
				 M297.739,272.078c-0.523,0-0.948-0.424-0.948-0.948v-11.323c0-0.524,0.425-0.948,0.948-0.948c0.524,0,0.948,0.424,0.948,0.948
				v11.323C298.688,271.654,298.263,272.078,297.739,272.078z M104.523,259.738c-0.523,0-0.948-0.425-0.948-0.948v-11.323
				c0-0.524,0.425-0.948,0.948-0.948c0.524,0,0.949,0.424,0.949,0.948v11.323C105.472,259.314,105.047,259.738,104.523,259.738z
				 M297.739,249.432c-0.523,0-0.948-0.425-0.948-0.948V237.16c0-0.525,0.425-0.948,0.948-0.948c0.524,0,0.948,0.424,0.948,0.948
				v11.324C298.688,249.007,298.263,249.432,297.739,249.432z M104.523,237.092c-0.523,0-0.948-0.425-0.948-0.949V224.82
				c0-0.524,0.425-0.948,0.948-0.948c0.524,0,0.949,0.424,0.949,0.948v11.323C105.472,236.667,105.047,237.092,104.523,237.092z
				 M297.739,226.785c-0.523,0-0.948-0.424-0.948-0.948v-11.324c0-0.523,0.425-0.948,0.948-0.948c0.524,0,0.948,0.425,0.948,0.948
				v11.324C298.688,226.36,298.263,226.785,297.739,226.785z M104.523,214.43c-0.523,0-0.948-0.41-0.948-0.934v-0.03
				c0-4.699,3.258-8.595,7.416-8.871c0.522-0.036,0.974,0.362,1.009,0.885c0.034,0.522-0.361,0.974-0.884,1.008
				c-3.165,0.208-5.644,3.273-5.644,6.977C105.472,213.99,105.047,214.43,104.523,214.43z M292.214,206.642
				c-0.072,0-0.146-0.008-0.219-0.026c-0.39-0.092-0.79-0.139-1.193-0.139h-9.899c-0.523,0-0.948-0.424-0.948-0.948
				c0-0.523,0.425-0.948,0.948-0.948h9.899c0.548,0,1.096,0.065,1.628,0.19c0.51,0.121,0.826,0.63,0.706,1.14
				C293.033,206.347,292.644,206.642,292.214,206.642z M269.58,206.477h-11.323c-0.523,0-0.948-0.424-0.948-0.948
				c0-0.523,0.425-0.948,0.948-0.948h11.323c0.523,0,0.948,0.425,0.948,0.948C270.528,206.053,270.103,206.477,269.58,206.477z
				 M246.933,206.477H235.61c-0.523,0-0.948-0.424-0.948-0.948c0-0.523,0.425-0.948,0.948-0.948h11.323
				c0.524,0,0.948,0.425,0.948,0.948C247.881,206.053,247.457,206.477,246.933,206.477z M224.287,206.477h-11.324
				c-0.524,0-0.948-0.424-0.948-0.948c0-0.523,0.424-0.948,0.948-0.948h11.324c0.523,0,0.948,0.425,0.948,0.948
				C225.235,206.053,224.811,206.477,224.287,206.477z M201.64,206.477h-11.323c-0.523,0-0.948-0.424-0.948-0.948
				c0-0.523,0.425-0.948,0.948-0.948h11.323c0.524,0,0.948,0.425,0.948,0.948C202.588,206.053,202.164,206.477,201.64,206.477z
				 M178.993,206.477H167.67c-0.524,0-0.948-0.424-0.948-0.948c0-0.523,0.424-0.948,0.948-0.948h11.323
				c0.524,0,0.949,0.425,0.949,0.948C179.942,206.053,179.517,206.477,178.993,206.477z M156.347,206.477h-11.323
				c-0.523,0-0.948-0.424-0.948-0.948c0-0.523,0.425-0.948,0.948-0.948h11.323c0.523,0,0.948,0.425,0.948,0.948
				C157.295,206.053,156.87,206.477,156.347,206.477z M133.7,206.477h-11.323c-0.524,0-0.948-0.424-0.948-0.948
				c0-0.523,0.424-0.948,0.948-0.948H133.7c0.524,0,0.948,0.425,0.948,0.948C134.648,206.053,134.224,206.477,133.7,206.477z"/>
		</g>
	</g>
	<g>
		<path style="opacity:0.3;fill:#65B1CF;" d="M310.124,331.005c0,2.365-1.918,4.284-4.284,4.284H155.514
			c-2.366,0-4.283-1.919-4.283-4.284v-90.339c0-2.365,1.917-4.285,4.283-4.285h150.325c2.366,0,4.284,1.919,4.284,4.285V331.005z"/>
		<path style="opacity:0.3;fill:#65B1CF;" d="M523.761,184.548c0,2.365-1.918,4.284-4.284,4.284H369.151
			c-2.366,0-4.283-1.919-4.283-4.284V94.21c0-2.364,1.917-4.285,4.283-4.285h150.326c2.365,0,4.284,1.921,4.284,4.285V184.548z"/>
		<path style="fill:#B5E0F7;" d="M639.302,356.73c0,2.365-1.919,4.283-4.284,4.283H484.692c-2.366,0-4.283-1.918-4.283-4.283
			v-90.339c0-2.365,1.917-4.285,4.283-4.285h150.326c2.365,0,4.284,1.92,4.284,4.285V356.73z"/>
		<path style="fill:#B5E0F7;" d="M320.003,155.581c0,1.972-1.6,3.571-3.57,3.571H191.156c-1.972,0-3.569-1.599-3.569-3.571V80.296
			c0-1.971,1.598-3.571,3.569-3.571h125.277c1.97,0,3.57,1.6,3.57,3.571V155.581z"/>
	</g>
	<g>
		<g>
			<g>
				<g>
					<polygon style="fill:#413A66;" points="404.221,378.724 349.613,378.724 340.9,401.093 412.935,401.093 					"/>
					<rect x="313.757" y="400.386" style="fill:#65B1CF;" width="126.322" height="19.737"/>
				</g>
			</g>
			<path style="fill:#413A66;" d="M560.864,376.84c0,5.813-4.714,10.527-10.527,10.527H199.989c-5.814,0-10.526-4.714-10.526-10.527
				V174.132c0-5.813,4.711-10.525,10.526-10.525h350.348c5.813,0,10.527,4.712,10.527,10.525V376.84z"/>
			<path style="fill:#65B1CF;" d="M189.463,302.124v74.716c0,5.813,4.711,10.527,10.526,10.527h350.348
				c5.813,0,10.527-4.714,10.527-10.527v-74.716H189.463z"/>
			<path style="fill:#CFD1D2;" d="M196.042,344.084V173.787c0-1.986,1.77-3.602,3.947-3.602h350.348
				c2.176,0,3.948,1.615,3.948,3.602v170.297H196.042z"/>
			<rect x="256.63" y="170.185" style="fill:#FFFFFF;" width="237.066" height="173.899"/>
			<path style="fill:#65B1CF;" d="M554.284,202.065v-28.278c0-1.986-1.771-3.602-3.948-3.602H199.989
				c-2.177,0-3.947,1.615-3.947,3.602v28.278H554.284z"/>
		</g>
		<g>
			<rect x="545.9" y="351.281" style="fill:#4980AC;" width="8.384" height="8.385"/>
			<rect x="530.483" y="351.281" style="opacity:0.7;fill:#FFFFFF;" width="8.385" height="8.385"/>
			<rect x="515.066" y="351.281" style="opacity:0.4;fill:#FFFFFF;" width="8.384" height="8.385"/>
			<rect x="499.65" y="351.281" style="opacity:0.2;fill:#FFFFFF;" width="8.384" height="8.385"/>
		</g>
	</g>
	<g>
		<g>
			<g>
				<path style="opacity:0.2;fill:#413A66;" d="M661.376,250.164c0,3.007-2.439,5.447-5.448,5.447H464.811
					c-3.008,0-5.447-2.439-5.447-5.447V135.313c0-3.008,2.438-5.447,5.447-5.447h191.117c3.008,0,5.448,2.439,5.448,5.447V250.164z"
					/>
				<path style="fill:#FFFFFF;" d="M666.994,243.552c0,3.008-2.439,5.447-5.448,5.447H470.43c-3.009,0-5.447-2.439-5.447-5.447
					V128.701c0-3.008,2.439-5.447,5.447-5.447h191.117c3.009,0,5.448,2.439,5.448,5.447V243.552z"/>
				<path style="fill:#413A66;" d="M661.546,123.253H470.43c-3.009,0-5.447,2.439-5.447,5.447v19.713h202.012v-19.713
					C666.994,125.693,664.555,123.253,661.546,123.253z"/>
			</g>
			<g>
				<rect x="653.337" y="134.564" style="fill:#B5E0F7;" width="5.689" height="5.689"/>
				<rect x="645.908" y="134.564" style="opacity:0.7;fill:#B5E0F7;" width="5.689" height="5.689"/>
				<rect x="638.479" y="134.564" style="opacity:0.2;fill:#B5E0F7;" width="5.69" height="5.689"/>
			</g>
			<path style="fill:#FFFFFF;" d="M518.925,190.912c0,6.26-5.075,11.335-11.336,11.335c-6.261,0-11.336-5.075-11.336-11.335
				c0-6.262,5.076-11.336,11.336-11.336C513.851,179.575,518.925,184.65,518.925,190.912z"/>
			<path style="fill:#FFFFFF;" d="M559.856,212.97c0,6.262-5.075,11.336-11.336,11.336s-11.336-5.075-11.336-11.336
				c0-6.26,5.076-11.337,11.336-11.337S559.856,206.71,559.856,212.97z"/>
			<g>
				
					<ellipse transform="matrix(0.2298 -0.9732 0.9732 0.2298 215.0777 666.6912)" style="opacity:0.2;fill:#65B1CF;" cx="528.739" cy="197.464" rx="35.208" ry="35.208"/>
				<g>
					<g>
						<path style="fill:#B5E0F7;" d="M522.164,211.355l7.625-6.827l-2.993-7.356c0.526-1.024,0.98-2.099,1.351-3.227
							c0.369-1.128,0.639-2.263,0.821-3.398l6.769-4.154l-2.098-10.018l-7.873-1.085c-1.248-1.952-2.813-3.71-4.646-5.195
							l-0.212-7.938l-9.725-3.189l-4.875,6.267c-2.354,0.111-4.656,0.602-6.819,1.434l-6.985-3.786l-7.625,6.827l2.993,7.356
							c-0.528,1.022-0.982,2.096-1.353,3.224c-0.369,1.128-0.64,2.263-0.82,3.399l-6.769,4.154l2.099,10.018l7.872,1.087
							c1.25,1.95,2.815,3.708,4.646,5.193l0.214,7.938l9.725,3.191l4.872-6.271c2.356-0.109,4.659-0.6,6.822-1.432L522.164,211.355z
							 M513.451,189.124c-1.108,3.38-4.747,5.221-8.126,4.114c-3.381-1.109-5.221-4.749-4.112-8.127
							c1.109-3.38,4.746-5.223,8.128-4.114C512.72,182.107,514.56,185.745,513.451,189.124z"/>
						<path style="fill:#413A66;" d="M512.668,170.852c-8.983-2.947-18.654,1.948-21.6,10.931
							c-2.947,8.982,1.947,18.654,10.929,21.601c8.983,2.947,18.653-1.947,21.601-10.931
							C526.544,183.47,521.651,173.8,512.668,170.852z M505.325,193.238c-3.381-1.109-5.221-4.749-4.112-8.127
							c1.109-3.38,4.746-5.223,8.128-4.114c3.379,1.109,5.22,4.747,4.11,8.127C512.343,192.505,508.705,194.346,505.325,193.238z"/>
					</g>
					<g>
						<path style="fill:#B5E0F7;" d="M559.775,227.992l5.921-5.301l-2.324-5.71c0.41-0.794,0.761-1.628,1.048-2.504
							c0.288-0.876,0.497-1.757,0.638-2.639l5.253-3.224l-1.63-7.777l-6.109-0.842c-0.972-1.515-2.186-2.88-3.607-4.032
							l-0.166-6.164l-7.551-2.477l-3.783,4.868c-1.829,0.087-3.615,0.466-5.294,1.111l-5.423-2.937l-5.919,5.299l2.323,5.711
							c-0.408,0.791-0.762,1.627-1.049,2.503c-0.287,0.876-0.496,1.757-0.638,2.639l-5.254,3.225l1.63,7.777l6.11,0.842
							c0.97,1.517,2.185,2.88,3.607,4.034l0.164,6.162l7.551,2.476l3.783-4.868c1.829-0.085,3.616-0.466,5.295-1.113
							L559.775,227.992z M553.015,210.736c-0.862,2.623-3.685,4.053-6.309,3.191c-2.624-0.859-4.053-3.686-3.192-6.308
							c0.86-2.624,3.686-4.054,6.309-3.193C552.446,205.288,553.874,208.112,553.015,210.736z"/>
						<path style="fill:#413A66;" d="M552.405,196.551c-6.974-2.289-14.481,1.511-16.769,8.484
							c-2.288,6.973,1.511,14.48,8.484,16.769c6.975,2.287,14.481-1.512,16.768-8.484
							C563.177,206.345,559.379,198.839,552.405,196.551z M546.706,213.928c-2.624-0.859-4.053-3.686-3.192-6.308
							c0.86-2.624,3.686-4.054,6.309-3.193c2.623,0.861,4.052,3.686,3.192,6.31C552.152,213.359,549.33,214.789,546.706,213.928z"/>
					</g>
				</g>
			</g>
			<g>
				<path style="fill:#413A66;" d="M585.021,224.177c0,5.236,4.246,9.483,9.483,9.483h50.061c5.237,0,9.483-4.247,9.483-9.483
					v-50.062c0-5.238-4.246-9.482-9.483-9.482h-50.061c-5.237,0-9.483,4.245-9.483,9.482V224.177z"/>
				<path style="fill:#B5E0F7;" d="M646.619,175.458c0,1.702-1.38,3.082-3.082,3.082h-48.162c-1.702,0-3.082-1.38-3.082-3.082l0,0
					c0-1.702,1.38-3.081,3.082-3.081h48.162C645.239,172.376,646.619,173.756,646.619,175.458L646.619,175.458z"/>
				<path style="fill:#B5E0F7;" d="M630.144,202.88c0,1.702-1.38,3.082-3.082,3.082h-31.687c-1.702,0-3.082-1.38-3.082-3.082l0,0
					c0-1.702,1.38-3.082,3.082-3.082h31.687C628.764,199.798,630.144,201.178,630.144,202.88L630.144,202.88z"/>
				<path style="fill:#FFFFFF;" d="M641.286,212.994c0,1.702-1.38,3.082-3.082,3.082h-42.829c-1.702,0-3.082-1.38-3.082-3.082l0,0
					c0-1.702,1.38-3.082,3.082-3.082h42.829C639.906,209.912,641.286,211.292,641.286,212.994L641.286,212.994z"/>
				<path style="fill:#FFFFFF;" d="M612.285,185.574c0,1.702-1.38,3.082-3.082,3.082h-13.829c-1.702,0-3.082-1.38-3.082-3.082l0,0
					c0-1.702,1.38-3.082,3.082-3.082h13.829C610.905,182.492,612.285,183.872,612.285,185.574L612.285,185.574z"/>
				<path style="fill:#FFFFFF;" d="M602.92,223.108c0,1.702-1.379,3.082-3.081,3.082h-4.464c-1.702,0-3.082-1.38-3.082-3.082l0,0
					c0-1.702,1.38-3.082,3.082-3.082h4.464C601.541,220.026,602.92,221.406,602.92,223.108L602.92,223.108z"/>
				<path style="fill:#FFFFFF;" d="M616.532,223.108c0,1.702-1.38,3.082-3.082,3.082h-4.464c-1.702,0-3.082-1.38-3.082-3.082l0,0
					c0-1.702,1.38-3.082,3.082-3.082h4.464C615.152,220.026,616.532,221.406,616.532,223.108L616.532,223.108z"/>
				<path style="fill:#FFFFFF;" d="M630.143,223.108c0,1.702-1.38,3.082-3.082,3.082h-4.464c-1.702,0-3.082-1.38-3.082-3.082l0,0
					c0-1.702,1.38-3.082,3.082-3.082h4.464C628.763,220.026,630.143,221.406,630.143,223.108L630.143,223.108z"/>
				<path style="fill:#FFFFFF;" d="M635.477,185.574c0,1.702-1.38,3.082-3.082,3.082h-13.829c-1.702,0-3.081-1.38-3.081-3.082l0,0
					c0-1.702,1.379-3.082,3.081-3.082h13.829C634.098,182.492,635.477,183.872,635.477,185.574L635.477,185.574z"/>
			</g>
		</g>
		<g>
			<g>
				<path style="opacity:0.2;fill:#413A66;" d="M194.975,387.644c0,1.744-1.415,3.159-3.161,3.159H80.919
					c-1.746,0-3.161-1.415-3.161-3.159v-66.642c0-1.747,1.416-3.162,3.161-3.162h110.895c1.746,0,3.161,1.415,3.161,3.162V387.644z"
					/>
				<path style="fill:#FFFFFF;" d="M201.131,381.031c0,1.746-1.415,3.161-3.161,3.161H87.075c-1.746,0-3.161-1.415-3.161-3.161
					V314.39c0-1.744,1.415-3.159,3.161-3.159H197.97c1.746,0,3.161,1.415,3.161,3.159V381.031z"/>
				<path style="fill:#B5E0F7;" d="M197.97,311.23H87.075c-1.746,0-3.161,1.415-3.161,3.159v11.439h117.217V314.39
					C201.131,312.646,199.716,311.23,197.97,311.23z"/>
			</g>
			<g>
				<rect x="193.207" y="317.794" style="fill:#FFFFFF;" width="3.301" height="3.301"/>
				<rect x="188.896" y="317.794" style="opacity:0.7;fill:#FFFFFF;" width="3.302" height="3.301"/>
				<rect x="184.585" y="317.794" style="opacity:0.2;fill:#FFFFFF;" width="3.301" height="3.301"/>
			</g>
			<g>
				<rect x="92.996" y="336.025" style="fill:#B5E0F7;" width="53.509" height="33.429"/>
				<g>
					<path style="fill:#413A66;" d="M129.472,352.741c0,5.367-4.352,9.72-9.721,9.72c-5.369,0-9.721-4.353-9.721-9.72
						c0-5.369,4.352-9.722,9.721-9.722C125.12,343.02,129.472,347.372,129.472,352.741z"/>
					<polygon style="fill:#FFFFFF;" points="116.849,347.899 125.233,352.741 116.849,357.58 					"/>
				</g>
			</g>
			<g>
				<g>
					<rect x="155.034" y="336.025" style="fill:#B5E0F7;" width="41.474" height="4.313"/>
					<rect x="155.034" y="336.025" style="fill:#65B1CF;" width="35.397" height="4.313"/>
					<rect x="155.034" y="336.025" style="fill:#413A66;" width="12.93" height="4.313"/>
				</g>
				<g>
					<rect x="155.034" y="343.02" style="fill:#B5E0F7;" width="41.474" height="4.31"/>
					<rect x="155.034" y="343.02" style="fill:#65B1CF;" width="35.397" height="4.31"/>
					<rect x="155.034" y="343.02" style="fill:#413A66;" width="26.824" height="4.31"/>
				</g>
				<g>
					<rect x="155.034" y="350.011" style="fill:#B5E0F7;" width="41.474" height="4.312"/>
					<rect x="155.034" y="350.011" style="fill:#65B1CF;" width="28.611" height="4.312"/>
					<rect x="155.034" y="350.011" style="fill:#413A66;" width="9.216" height="4.312"/>
				</g>
				<g>
					<rect x="155.034" y="357.004" style="fill:#B5E0F7;" width="41.474" height="4.311"/>
					<rect x="155.034" y="357.004" style="fill:#65B1CF;" width="35.397" height="4.311"/>
					<rect x="155.034" y="357.004" style="fill:#413A66;" width="26.824" height="4.311"/>
				</g>
			</g>
			<rect x="162.645" y="364.455" style="fill:#B5E0F7;" width="33.863" height="2.477"/>
			<rect x="155.034" y="369.454" style="fill:#B5E0F7;" width="41.474" height="2.475"/>
			<rect x="155.034" y="374.451" style="fill:#B5E0F7;" width="41.474" height="2.476"/>
		</g>
		<g>
			<g>
				<polygon style="opacity:0.2;fill:#413A66;" points="438.419,326.324 300.116,326.324 300.116,139.379 421.185,139.379 
					438.419,156.593 				"/>
				<g>
					<polygon style="fill:#FFFFFF;" points="444.315,319.686 306.012,319.686 306.012,132.741 427.081,132.741 444.315,149.955 
											"/>
					<rect x="329.626" y="145.199" style="fill:#B5E0F7;" width="54.34" height="6.338"/>
					<rect x="313.89" y="156.291" style="fill:#B5E0F7;" width="70.077" height="6.339"/>
					<rect x="313.89" y="167.383" style="fill:#B5E0F7;" width="70.077" height="6.34"/>
					<rect x="313.89" y="178.476" style="fill:#B5E0F7;" width="70.077" height="6.339"/>
					<rect x="313.89" y="189.569" style="fill:#B5E0F7;" width="70.077" height="6.337"/>
					<rect x="313.89" y="200.661" style="fill:#B5E0F7;" width="70.077" height="6.339"/>
					<rect x="390.13" y="145.199" style="opacity:0.3;fill:#B5E0F7;" width="46.307" height="61.801"/>
					<rect x="313.89" y="215.452" style="fill:#B5E0F7;" width="122.547" height="54.23"/>
					
						<text transform="matrix(1 0 0 1 323.2432 259.4756)" style="fill:#FFFFFF; font-family:'Montserrat-Medium'; font-size:45.5261px;">CMS</text>
					<g>
						<path style="fill:#413A66;" d="M428.069,176.127c0,8.165-6.62,14.785-14.786,14.785c-8.167,0-14.786-6.62-14.786-14.785
							c0-8.168,6.619-14.787,14.786-14.787C421.449,161.34,428.069,167.959,428.069,176.127z"/>
						<polygon style="fill:#FFFFFF;" points="408.868,168.765 421.622,176.127 408.868,183.489 						"/>
					</g>
					<rect x="313.89" y="278.31" style="fill:#413A66;" width="46.198" height="20.073"/>
					<rect x="366.25" y="278.31" style="fill:#B5E0F7;" width="70.131" height="20.073"/>
				</g>
			</g>
			<polygon style="fill:#B5E0F7;" points="427.081,132.741 427.081,149.955 444.296,149.955 			"/>
		</g>
		<g>
			<path style="opacity:0.2;fill:#413A66;" d="M553.403,301.418h-10.284V284.09l-9.413-9.403h-66.13v36.368h-6.88
				c-3.506,0-6.349,2.843-6.349,6.349v54.91c0,3.506,2.843,6.349,6.349,6.349h89.306c3.506,0,6.349-2.843,6.349-6.349v-41.038
				v-13.872v-13.039C556.35,302.736,555.031,301.418,553.403,301.418z"/>
			<g>
				<g>
					<g>
						<polygon style="fill:#FFFFFF;" points="548.492,371.004 472.948,371.004 472.948,268.891 539.079,268.891 548.492,278.294 
													"/>
						<polygon style="fill:#B5E0F7;" points="539.079,268.891 539.079,278.294 548.481,278.294 						"/>
					</g>
					<g>
						<rect x="493.368" y="285.425" style="opacity:0.2;fill:#65B1CF;" width="45.711" height="4.868"/>
						<rect x="482.361" y="296.06" style="opacity:0.2;fill:#65B1CF;" width="56.717" height="4.867"/>
						<rect x="482.361" y="306.694" style="opacity:0.2;fill:#65B1CF;" width="56.717" height="4.865"/>
						<rect x="482.361" y="317.327" style="opacity:0.2;fill:#65B1CF;" width="56.717" height="4.867"/>
						<rect x="482.361" y="327.962" style="opacity:0.2;fill:#65B1CF;" width="56.717" height="4.867"/>
					</g>
				</g>
				<g>
					<path style="fill:#B5E0F7;" d="M561.723,366.517c0,3.506-2.843,6.349-6.349,6.349h-89.306c-3.506,0-6.349-2.843-6.349-6.349
						v-54.908c0-3.508,2.843-6.35,6.349-6.35h89.306c3.506,0,6.349,2.842,6.349,6.35V366.517z"/>
					<path style="fill:#B5E0F7;" d="M561.723,325.478c0,1.628-1.32,2.946-2.947,2.946h-41.444c-1.627,0-2.947-1.318-2.947-2.946
						v-26.911c0-1.626,1.32-2.946,2.947-2.946h41.444c1.627,0,2.947,1.32,2.947,2.946V325.478z"/>
					<g>
						<path style="fill:#FFFFFF;" d="M528.05,350.566c0,3.784-3.068,6.851-6.852,6.851h-20.946c-3.784,0-6.852-3.066-6.852-6.851
							v-20.947c0-3.783,3.068-6.851,6.852-6.851h20.946c3.784,0,6.852,3.067,6.852,6.851V350.566z"/>
						<path style="fill:#413A66;" d="M517.775,337.202c0-3.893-3.156-7.049-7.05-7.049c-3.893,0-7.049,3.155-7.049,7.049
							c0,2.814,1.651,5.233,4.034,6.363v2.733c0,1.665,1.35,3.017,3.015,3.017c1.667,0,3.016-1.352,3.016-3.017v-2.733
							C516.124,342.435,517.775,340.016,517.775,337.202z"/>
					</g>
				</g>
			</g>
		</g>
		<g>
			<rect x="576.566" y="276.558" style="opacity:0.2;fill:#413A66;" width="87.714" height="60.517"/>
			<rect x="581.584" y="271.177" style="fill:#FFFFFF;" width="87.715" height="60.517"/>
			<rect x="586.326" y="275.865" style="fill:#B5E0F7;" width="78.231" height="51.141"/>
			<path style="fill:#FFFFFF;" d="M633.739,306.42c0,9.951-8.067,18.018-18.017,18.018c-9.95,0-18.017-8.066-18.017-18.018
				c0-9.949,8.067-18.017,18.017-18.017C625.672,288.403,633.739,296.471,633.739,306.42z"/>
			<polygon style="fill:#413A66;" points="600.866,327.006 664.558,327.006 664.558,308.355 642.037,285.835 			"/>
			<polygon style="fill:#B5E0F7;" points="605.292,299.868 586.326,318.833 586.326,327.006 632.429,327.006 			"/>
		</g>
		<g>
			<g>
				<path style="opacity:0.2;fill:#413A66;" d="M267.306,191.656c0,1.995-1.617,3.612-3.612,3.612H136.956
					c-1.995,0-3.612-1.617-3.612-3.612v-76.163c0-1.994,1.617-3.611,3.612-3.611h126.737c1.995,0,3.612,1.618,3.612,3.611V191.656z"
					/>
				<path style="fill:#B5E0F7;" d="M273.458,184.417c0,1.995-1.617,3.612-3.611,3.612H143.109c-1.995,0-3.611-1.617-3.611-3.612
					v-76.163c0-1.994,1.617-3.611,3.611-3.611h126.738c1.995,0,3.611,1.618,3.611,3.611V184.417z"/>
				<path style="fill:#413A66;" d="M269.847,104.642H143.109c-1.995,0-3.611,1.618-3.611,3.611v13.074h133.96v-13.074
					C273.458,106.26,271.841,104.642,269.847,104.642z"/>
				<g>
					<rect x="264.401" y="112.143" style="fill:#FFFFFF;" width="3.774" height="3.772"/>
					<rect x="259.476" y="112.143" style="fill:#FFFFFF;" width="3.773" height="3.772"/>
					<rect x="254.549" y="112.143" style="fill:#FFFFFF;" width="3.774" height="3.772"/>
				</g>
			</g>
			<g>
				<path style="fill:#FFFFFF;" d="M195.943,146.368l-15.75,6.51l15.75,6.51v4.506l-19.666-8.421v-5.189l19.666-8.468V146.368z"/>
				<path style="fill:#FFFFFF;" d="M215.884,130.573l-14.476,42.333h-5.052l14.521-42.333H215.884z"/>
				<path style="fill:#FFFFFF;" d="M214.382,159.113l15.751-6.51l-15.751-6.508v-4.508l19.666,8.421v5.189l-19.666,8.468V159.113z"
					/>
			</g>
		</g>
		<g>
			<path style="opacity:0.2;fill:#413A66;" d="M278.746,281.435c0,4.305-3.49,7.794-7.793,7.794h-86.061
				c-4.304,0-7.793-3.489-7.793-7.794v-52.6c0-4.303,3.489-7.792,7.793-7.792h86.061c4.303,0,7.793,3.489,7.793,7.792V281.435z"/>
			<path style="fill:#B5E0F7;" d="M285.226,275.3c0,4.305-3.489,7.793-7.793,7.793h-86.061c-4.303,0-7.792-3.488-7.792-7.793
				v-52.601c0-4.304,3.489-7.793,7.792-7.793h86.061c4.304,0,7.793,3.489,7.793,7.793V275.3z"/>
			<path style="fill:#FFFFFF;" d="M183.579,269.65v5.649c0,4.305,3.489,7.793,7.792,7.793h86.061c4.304,0,7.793-3.488,7.793-7.793
				v-5.649H183.579z"/>
			<g>
				<g>
					<rect x="194.83" y="224.816" style="fill:#FFFFFF;" width="77.149" height="7.987"/>
					<rect x="194.83" y="224.816" style="fill:#413A66;" width="12.176" height="7.987"/>
				</g>
				<rect x="194.83" y="234.849" style="fill:#FFFFFF;" width="35.848" height="4.832"/>
				<rect x="234.734" y="234.849" style="fill:#FFFFFF;" width="10.131" height="4.832"/>
				<rect x="248.73" y="234.849" style="fill:#FFFFFF;" width="10.131" height="4.832"/>
			</g>
			<g>
				<g>
					<rect x="194.83" y="247.148" style="fill:#FFFFFF;" width="77.149" height="7.988"/>
					<rect x="194.83" y="247.148" style="fill:#413A66;" width="26.885" height="7.988"/>
				</g>
				<rect x="194.83" y="257.182" style="fill:#FFFFFF;" width="17.144" height="4.833"/>
				<rect x="215.74" y="257.182" style="fill:#FFFFFF;" width="15.585" height="4.833"/>
				<rect x="234.402" y="257.182" style="fill:#FFFFFF;" width="10.13" height="4.833"/>
			</g>
		</g>
		<g>
			<g>
				<g>
					<path style="opacity:0.2;fill:#413A66;" d="M216.179,319.988c0-4.304,3.489-7.793,7.794-7.793h86.061
						c4.304,0,7.793,3.489,7.793,7.793v52.602c0,4.304-3.489,7.791-7.793,7.791h-86.061c-4.304,0-7.794-3.487-7.794-7.791V319.988z"
						/>
					<path style="fill:#FFFFFF;" d="M221.155,314.61c0-4.305,3.489-7.794,7.793-7.794h86.061c4.304,0,7.793,3.489,7.793,7.794v52.6
						c0,4.303-3.489,7.792-7.793,7.792h-86.061c-4.304,0-7.793-3.489-7.793-7.792V314.61z"/>
					<path style="fill:#413A66;" d="M322.802,320.259v-5.648c0-4.305-3.489-7.794-7.793-7.794h-86.061
						c-4.304,0-7.793,3.489-7.793,7.794v5.648H322.802z"/>
				</g>
				<path style="opacity:0.4;fill:#B5E0F7;" d="M275.968,335.506c-0.011-0.163-0.024-0.326-0.024-0.491
					c0-4.017,3.255-7.273,7.271-7.273c1.075,0,2.094,0.241,3.014,0.659c1.772-1.899,4.289-3.095,7.092-3.095
					c5.362,0,9.707,4.347,9.707,9.709c0,0.252-0.011,0.5-0.03,0.748c2.57,1.489,4.302,4.264,4.302,7.447
					c0,4.756-3.856,8.612-8.612,8.612c-1.744,0-3.364-0.522-4.722-1.413c-1.355,0.893-2.976,1.413-4.722,1.413
					c-1.744,0-3.365-0.522-4.722-1.413c-1.357,0.891-2.976,1.413-4.722,1.413c-4.756,0-8.612-3.857-8.612-8.612
					C271.189,339.832,273.137,336.919,275.968,335.506z"/>
				<path style="fill:#B5E0F7;" d="M292.78,342.919c0.017-0.255,0.038-0.511,0.038-0.771c0-6.293-5.101-11.393-11.392-11.393
					c-1.686,0-3.281,0.376-4.721,1.031c-2.776-2.976-6.722-4.849-11.114-4.849c-8.4,0-15.21,6.81-15.21,15.209
					c0,0.396,0.019,0.786,0.047,1.175c-4.025,2.333-6.74,6.681-6.74,11.668c0,7.453,6.042,13.494,13.494,13.494
					c2.732,0,5.271-0.818,7.397-2.215c2.122,1.4,4.664,2.215,7.398,2.215c2.733,0,5.272-0.818,7.398-2.215
					c2.126,1.396,4.664,2.215,7.397,2.215c7.453,0,13.494-6.041,13.494-13.494C300.268,349.698,297.215,345.131,292.78,342.919z"/>
				<polygon style="fill:#413A66;" points="271.978,339.906 261.719,350.166 266.916,350.166 266.916,357.419 277.041,357.419 
					277.041,350.166 282.239,350.166 				"/>
			</g>
			<g>
				<rect x="311.031" y="313.538" style="fill:#B5E0F7;" width="4.63" height="4.63"/>
				<rect x="304.985" y="313.538" style="opacity:0.7;fill:#B5E0F7;" width="4.63" height="4.63"/>
				<rect x="298.94" y="313.538" style="opacity:0.2;fill:#B5E0F7;" width="4.63" height="4.63"/>
			</g>
		</g>
	</g>
	<g>
		<polygon style="fill:#FFFFFF;" points="599.447,358.041 599.447,376.41 604.1,371.758 610.592,378.251 619.657,369.188 
			613.165,362.694 617.818,358.041 		"/>
		<g>
			<circle style="fill:#413A66;" cx="554.284" cy="412.737" r="11.705"/>
			<polygon style="fill:#FFFFFF;" points="550.79,406.91 560.885,412.737 550.79,418.565 			"/>
		</g>
		<g>
			<g>
				<path style="fill:#FFFFFF;" d="M149.891,259.598c0,8.674-7.033,15.706-15.706,15.706c-8.674,0-15.707-7.032-15.707-15.706
					c0-8.676,7.032-15.705,15.707-15.705C142.857,243.893,149.891,250.922,149.891,259.598z"/>
			</g>
			<path style="fill:#B5E0F7;" d="M141.946,263.661l-2.402-2.402c1.55-2.766,1.179-6.318-1.174-8.669
				c-2.836-2.837-7.435-2.837-10.272-0.002c-2.836,2.836-2.836,7.437,0,10.269c2.353,2.355,5.904,2.725,8.669,1.177l2.403,2.401
				c0.768,0.767,2.01,0.767,2.776,0C142.715,265.671,142.715,264.427,141.946,263.661z M136.27,260.758
				c-1.677,1.678-4.396,1.678-6.07,0c-1.678-1.677-1.678-4.394,0-6.069c1.674-1.677,4.393-1.677,6.07,0
				C137.946,256.364,137.946,259.081,136.27,260.758z"/>
		</g>
		<g>
			<path style="fill:#FFFFFF;" d="M338.525,102.216c0,8.685-7.039,15.723-15.723,15.723c-8.684,0-15.723-7.039-15.723-15.723
				c0-8.683,7.039-15.722,15.723-15.722C331.485,86.494,338.525,93.533,338.525,102.216z"/>
			<g>
				<path style="fill:#A6D8ED;" d="M316.01,101.86c0-1.959,1.595-3.553,3.553-3.553h10.804v-1.244c0-1.57-1.272-2.841-2.842-2.841
					H315.98c-1.57,0-2.841,1.271-2.841,2.841v4.262c0,1.57,1.271,2.842,2.841,2.842h0.03V101.86z"/>
				<path style="fill:#A6D8ED;" d="M331.484,99.416H319.94c-1.57,0-2.842,1.273-2.842,2.842v4.262c0,0.024,0.003,0.048,0.003,0.072
					v5.019l3.601-2.249h10.782c1.569,0,2.841-1.272,2.841-2.842v-4.262C334.325,100.69,333.053,99.416,331.484,99.416z
					 M322.111,105.514c-0.645,0-1.167-0.522-1.167-1.165c0-0.645,0.522-1.165,1.167-1.165c0.643,0,1.166,0.521,1.166,1.165
					C323.277,104.992,322.754,105.514,322.111,105.514z M325.934,105.514c-0.644,0-1.166-0.522-1.166-1.165
					c0-0.645,0.522-1.165,1.166-1.165c0.644,0,1.165,0.521,1.165,1.165C327.099,104.992,326.578,105.514,325.934,105.514z
					 M329.756,105.514c-0.644,0-1.165-0.522-1.165-1.165c0-0.645,0.521-1.165,1.165-1.165c0.643,0,1.166,0.521,1.166,1.165
					C330.922,104.992,330.399,105.514,329.756,105.514z"/>
			</g>
		</g>
		<polygon style="fill:#FFFFFF;" points="449.06,107.61 446.02,107.61 446.02,104.57 445.748,104.57 442.844,104.57 442.571,104.57 
			442.571,107.61 439.531,107.61 439.531,111.058 442.571,111.058 442.571,114.099 442.844,114.099 445.748,114.099 446.02,114.099 
			446.02,111.058 449.06,111.058 		"/>
		<polygon style="fill:#FFFFFF;" points="250.591,421.92 247.55,421.92 247.55,418.879 247.278,418.879 244.374,418.879 
			244.102,418.879 244.102,421.92 241.061,421.92 241.061,425.368 244.102,425.368 244.102,428.407 244.374,428.407 
			247.278,428.407 247.55,428.407 247.55,425.368 250.591,425.368 		"/>
		<polygon style="fill:#FFFFFF;" points="686.389,367.767 683.349,367.767 683.349,364.726 683.077,364.726 680.173,364.726 
			679.9,364.726 679.9,367.767 676.86,367.767 676.86,371.215 679.9,371.215 679.9,374.255 680.173,374.255 683.077,374.255 
			683.349,374.255 683.349,371.215 686.389,371.215 		"/>
		<polygon style="fill:#FFFFFF;" points="113.429,183.85 110.388,183.85 110.388,180.809 110.116,180.809 107.212,180.809 
			106.94,180.809 106.94,183.85 103.899,183.85 103.899,187.298 106.94,187.298 106.94,190.338 107.212,190.338 110.116,190.338 
			110.388,190.338 110.388,187.298 113.429,187.298 		"/>
	</g>
</g>
</svg>
